<svg xmlns="http://www.w3.org/2000/svg" width="1200" height="630" viewBox="0 0 1200 630" role="img" aria-labelledby="title desc">
  <title id="title">MCP 上生产清单</title>
  <desc id="desc">上线前检查 schema、权限、错误、日志、超时和回滚。</desc>
  <rect width="1200" height="630" fill="#fbfbf5"/>
  <path d="M0 0h1200v630H0z" fill="#e7eef1"/>
  <path d="M80 78h1040v474H80z" fill="#fbfbf5" stroke="#2f6f83" stroke-width="3"/>
  <path d="M120 128h410v8H120z" fill="#2f6f83"/>
  <text x="120" y="176" fill="#23342e" font-size="46" font-family="Arial, PingFang SC, Microsoft YaHei, sans-serif" font-weight="700">
    <tspan x="120" dy="0">MCP 上生产清单</tspan>
  </text>
  <text x="120" y="360" fill="#69736d" font-size="26" font-family="Arial, PingFang SC, Microsoft YaHei, sans-serif">
    <tspan x="120" dy="0">生产检查</tspan>
  </text>
  <text x="120" y="498" fill="#2f6f83" font-size="22" font-family="Arial, PingFang SC, Microsoft YaHei, sans-serif" font-weight="700">MCP 与工具协议</text>
  <rect x="650" y="150" width="130" height="118" rx="8" fill="#e7eef1" stroke="#2f6f83" stroke-width="2"/>
  <circle cx="680" cy="182" r="12" fill="#2f6f83"/>
  <text x="674" y="188" fill="#fbfbf5" font-size="18" font-family="Arial" font-weight="700">1</text>
  <text x="670" y="226" fill="#23342e" font-size="20" font-family="Arial, PingFang SC, Microsoft YaHei, sans-serif" font-weight="700">协议边界</text>
  <rect x="815" y="150" width="130" height="118" rx="8" fill="#e7eef1" stroke="#2f6f83" stroke-width="2"/>
  <circle cx="845" cy="182" r="12" fill="#2f6f83"/>
  <text x="839" y="188" fill="#fbfbf5" font-size="18" font-family="Arial" font-weight="700">2</text>
  <text x="835" y="226" fill="#23342e" font-size="20" font-family="Arial, PingFang SC, Microsoft YaHei, sans-serif" font-weight="700">接口设计</text>
  <rect x="980" y="150" width="130" height="118" rx="8" fill="#e7eef1" stroke="#2f6f83" stroke-width="2"/>
  <circle cx="1010" cy="182" r="12" fill="#2f6f83"/>
  <text x="1004" y="188" fill="#fbfbf5" font-size="18" font-family="Arial" font-weight="700">3</text>
  <text x="1000" y="226" fill="#23342e" font-size="20" font-family="Arial, PingFang SC, Microsoft YaHei, sans-serif" font-weight="700">测试和观测</text>
  <rect x="650" y="335" width="130" height="118" rx="8" fill="#e7eef1" stroke="#2f6f83" stroke-width="2"/>
  <circle cx="680" cy="367" r="12" fill="#2f6f83"/>
  <text x="674" y="373" fill="#fbfbf5" font-size="18" font-family="Arial" font-weight="700">4</text>
  <text x="670" y="411" fill="#23342e" font-size="20" font-family="Arial, PingFang SC, Microsoft YaHei, sans-serif" font-weight="700">生产建议</text>
  <path d="M780 208h35M945 208h35M715 268v67" stroke="#2f6f83" stroke-width="3" stroke-linecap="round"/>
  <text x="880" y="515" text-anchor="middle" fill="#69736d" font-size="20" font-family="Arial, PingFang SC, Microsoft YaHei, sans-serif">astaxie AI Knowledge #054</text>
</svg>
